HIERARCHY
ROOT Hips
{
	OFFSET 0.000000 0.000000 0.000000
	CHANNELS 6 Xposition Yposition Zposition Xrotation Yrotation Zrotation
	JOINT LeftUpLeg_virtual
	{
		OFFSET 0.000000 0.000000 0.000000
		CHANNELS 3 Xrotation Yrotation Zrotation
		JOINT LeftUpLeg
		{
			OFFSET 10.205400 -3.823500 0.155100
			CHANNELS 3 Xrotation Yrotation Zrotation
			JOINT LeftLeg
			{
				OFFSET 0.708757 -12.982077 0.567790
				CHANNELS 3 Xrotation Yrotation Zrotation
				JOINT LeftFoot
				{
					OFFSET -0.708756 -10.717838 -2.184338
					CHANNELS 3 Xrotation Yrotation Zrotation
					JOINT LeftToeBase
					{
						OFFSET 0.108149 -7.191104 7.560241
						CHANNELS 3 Xrotation Yrotation Zrotation
						JOINT LeftToe_End
						{
							OFFSET 0.070230 0.081724 4.490308
							CHANNELS 3 Xrotation Yrotation Zrotation
							End Site
							{
								OFFSET 0 0 0
							}
						}
					}
				}
			}
		}
	}
	JOINT RightUpLeg_virtual
	{
		OFFSET 0.000000 0.000000 0.000000
		CHANNELS 3 Xrotation Yrotation Zrotation
		JOINT RightUpLeg
		{
			OFFSET -10.205400 -3.823500 0.005500
			CHANNELS 3 Xrotation Yrotation Zrotation
			JOINT RightLeg
			{
				OFFSET -0.708756 -12.982134 0.610632
				CHANNELS 3 Xrotation Yrotation Zrotation
				JOINT RightFoot
				{
					OFFSET 0.708754 -10.717769 -1.945823
					CHANNELS 3 Xrotation Yrotation Zrotation
					JOINT RightToeBase
					{
						OFFSET -0.108140 -7.191069 7.372968
						CHANNELS 3 Xrotation Yrotation Zrotation
						JOINT RightToe_End
						{
							OFFSET -0.070227 0.081735 4.479403
							CHANNELS 3 Xrotation Yrotation Zrotation
							End Site
							{
								OFFSET 0 0 0
							}
						}
					}
				}
			}
		}
	}
	JOINT Spine_virtual
	{
		OFFSET 0.000000 0.000000 0.000000
		CHANNELS 3 Xrotation Yrotation Zrotation
		JOINT Spine
		{
			OFFSET 0.000000 6.876099 0.125700
			CHANNELS 3 Xrotation Yrotation Zrotation
			JOINT Spine1
			{
				OFFSET 0.000000 5.730043 0.104720
				CHANNELS 3 Xrotation Yrotation Zrotation
				JOINT Spine1_split
				{
					OFFSET 0.000000 5.730043 0.104720
					CHANNELS 3 Xrotation Yrotation Zrotation
					JOINT Spine2
					{
						OFFSET 0.000000 5.730043 0.104720
						CHANNELS 3 Xrotation Yrotation Zrotation
						JOINT Neck_virtual
						{
							OFFSET 0.000000 0.000000 0.000000
							CHANNELS 3 Xrotation Yrotation Zrotation
							JOINT Neck
							{
								OFFSET 0.000000 10.314075 0.188496
								CHANNELS 3 Xrotation Yrotation Zrotation
								JOINT Head
								{
									OFFSET 0.000000 7.643700 -2.377400
									CHANNELS 3 Xrotation Yrotation Zrotation
									JOINT HeadTop_End
									{
										OFFSET 0.000000 43.788605 -13.619600
										CHANNELS 3 Xrotation Yrotation Zrotation
										End Site
										{
											OFFSET 0 0 0
										}
									}
								}
							}
						}
						JOINT LeftShoulder_virtual
						{
							OFFSET 0.000000 0.000000 0.000000
							CHANNELS 3 Xrotation Yrotation Zrotation
							JOINT LeftShoulder
							{
								OFFSET 2.196100 4.412489 0.087492
								CHANNELS 3 Xrotation Yrotation Zrotation
								JOINT LeftShoulder_split
								{
									OFFSET 2.196100 4.412489 0.087492
									CHANNELS 3 Xrotation Yrotation Zrotation
									JOINT LeftArm
									{
										OFFSET 8.771219 -2.981674 -0.026999
										CHANNELS 3 Xrotation Yrotation Zrotation
										JOINT LeftForeArm
										{
											OFFSET 8.512804 0.000000 -0.000000
											CHANNELS 3 Xrotation Yrotation Zrotation
											JOINT LeftHand
											{
												OFFSET 18.484802 0.000000 -0.000000
												CHANNELS 3 Xrotation Yrotation Zrotation
												End Site
												{
													OFFSET 0 0 0
												}
											}
										}
									}
								}
							}
						}
						JOINT RightShoulder_virtual
						{
							OFFSET 0.000000 0.000000 0.000000
							CHANNELS 3 Xrotation Yrotation Zrotation
							JOINT RightShoulder
							{
								OFFSET -2.196100 4.412496 0.070690
								CHANNELS 3 Xrotation Yrotation Zrotation
								JOINT RightShoulder_split
								{
									OFFSET -2.196100 4.412496 0.070690
									CHANNELS 3 Xrotation Yrotation Zrotation
									JOINT RightArm
									{
										OFFSET -8.771282 -2.981682 -0.094208
										CHANNELS 3 Xrotation Yrotation Zrotation
										JOINT RightForeArm
										{
											OFFSET -8.494598 0.000000 0.000000
											CHANNELS 3 Xrotation Yrotation Zrotation
											JOINT RightHand
											{
												OFFSET -18.483803 0.000000 0.000001
												CHANNELS 3 Xrotation Yrotation Zrotation
												End Site
												{
													OFFSET 0 0 0
												}
											}
										}
									}
								}
							}
						}
					}
				}
			}
		}
	}
}
MOTION
Frames: 5
Frame Time: 0.03333333
-0.007977 31.262402 3.792866 0.000000 0.000000 0.000000 -14.609274 -2.073239 -4.827248 -33.853023 22.399011 11.298120 48.169018 -7.695088 11.768192 -5.462704 -6.937800 -1.157944 -1.844734 0.134397 -1.180308 0.000000 0.000000 0.000000 -14.312688 -1.395545 -4.817116 -16.626859 -30.326002 -0.163999 36.852900 9.453508 -11.204130 -4.801708 7.249721 -4.750724 -1.891660 0.513143 -0.011520 0.000000 0.000000 0.000000 -14.457659 -2.364494 -5.215630 5.295080 -1.553775 2.462435 13.377334 -0.867406 -0.223813 0.452105 2.561776 -0.457074 0.000000 0.000000 0.000000 11.888941 -0.301506 -0.377633 11.217040 0.959162 1.452301 -1.523520 1.556766 3.475346 0.000000 0.000000 0.000000 12.213965 -0.169215 -0.466986 0.783864 7.209062 -10.097319 -2.074443 -2.604016 -0.445520 81.766059 -69.442158 10.467496 0.075186 -25.155553 1.345999 0.000000 0.000000 0.000000 12.289051 -0.397036 -0.474729 1.549135 -1.362291 10.697648 5.838555 0.285096 -2.361930 6.049578 35.055058 58.598413 -0.958705 27.542188 0.412811 0.000000 0.000000 0.000000 
0.000318 31.263245 3.794928 0.000000 0.000000 0.000000 -14.620589 -2.112063 -4.795671 -33.807196 22.508137 11.290622 48.133426 -7.697184 11.758698 -5.467235 -6.952780 -1.141685 -1.832172 0.131911 -1.175495 0.000000 0.000000 0.000000 -14.323864 -1.436721 -4.784377 -16.698361 -30.213642 -0.166762 36.900650 9.413154 -11.242444 -4.805244 7.206739 -4.755017 -1.838863 0.498960 0.009223 0.000000 0.000000 0.000000 -14.465186 -2.404909 -5.182491 5.297751 -1.543020 2.452864 13.373867 -0.851419 -0.221105 0.448872 2.550055 -0.453439 0.000000 0.000000 0.000000 11.885797 -0.286576 -0.376641 11.240203 0.959860 1.423036 -1.547468 1.563134 3.477678 0.000000 0.000000 0.000000 12.209969 -0.157135 -0.463074 0.783544 7.220648 -10.149473 -2.078252 -2.568351 -0.453209 81.615529 -69.358331 10.400678 0.076275 -25.235179 1.343558 0.000000 0.000000 0.000000 12.279545 -0.382673 -0.469835 1.546940 -1.359510 10.677801 5.816531 0.287786 -2.362561 6.049956 35.063821 58.568633 -0.963237 27.500719 0.416249 0.000000 0.000000 0.000000 
0.006084 31.262655 3.797699 0.000000 0.000000 0.000000 -14.628612 -2.143276 -4.760760 -33.761506 22.610575 11.281503 48.093886 -7.696827 11.748087 -5.480779 -6.966681 -1.109055 -1.814540 0.129686 -1.178193 0.000000 0.000000 0.000000 -14.333254 -1.467427 -4.748514 -16.791977 -30.104141 -0.184960 36.979037 9.379118 -11.283051 -4.803154 7.185280 -4.757393 -1.800555 0.494649 0.028558 0.000000 0.000000 0.000000 -14.471557 -2.435891 -5.146888 5.297428 -1.537072 2.435501 13.371303 -0.839878 -0.218924 0.449898 2.540289 -0.450821 0.000000 0.000000 0.000000 11.885079 -0.275590 -0.375773 11.272882 0.960320 1.394382 -1.571627 1.553372 3.508636 0.000000 0.000000 0.000000 12.209515 -0.149325 -0.459435 0.783696 7.229164 -10.195355 -2.076530 -2.540280 -0.461046 81.332151 -69.261431 10.207967 0.079468 -25.338870 1.340956 0.000000 0.000000 0.000000 12.271895 -0.372697 -0.465309 1.546244 -1.347315 10.683030 5.798685 0.302845 -2.368998 6.090574 35.059921 58.489922 -0.963384 27.505846 0.419396 0.000000 0.000000 0.000000 
0.008390 31.259819 3.801424 0.000000 0.000000 0.000000 -14.633475 -2.164221 -4.724773 -33.722423 22.694557 11.272436 48.062634 -7.698664 11.740821 -5.501442 -6.980953 -1.068198 -1.800515 0.127784 -1.187923 0.000000 0.000000 0.000000 -14.340809 -1.485977 -4.712714 -16.904167 -30.009078 -0.222765 37.089362 9.359355 -11.323312 -4.801011 7.194830 -4.751534 -1.777498 0.500815 0.042413 0.000000 0.000000 0.000000 -14.475751 -2.454389 -5.111257 5.292878 -1.535518 2.411584 13.368393 -0.833833 -0.217428 0.450196 2.533894 -0.449400 0.000000 0.000000 0.000000 11.884455 -0.269860 -0.374935 11.317355 0.959984 1.371889 -1.592075 1.526247 3.571101 0.000000 0.000000 0.000000 12.210952 -0.146619 -0.456190 0.784692 7.235833 -10.229537 -2.067722 -2.525072 -0.465748 80.960923 -69.158780 9.921756 0.084696 -25.460543 1.336993 0.000000 0.000000 0.000000 12.265637 -0.367992 -0.461255 1.546439 -1.327577 10.711341 5.787916 0.331057 -2.384521 6.166960 35.043296 58.380024 -0.959197 27.554335 0.421344 0.000000 0.000000 0.000000 
0.007114 31.255524 3.805641 0.000000 0.000000 0.000000 -14.634047 -2.170586 -4.690530 -33.695034 22.750334 11.263632 48.044596 -7.705615 11.739040 -5.523336 -6.995718 -1.030646 -1.791602 0.126277 -1.202702 0.000000 0.000000 0.000000 -14.344304 -1.493416 -4.679399 -17.020862 -29.934342 -0.276944 37.218380 9.354281 -11.357858 -4.805805 7.234162 -4.734053 -1.766638 0.515037 0.049917 0.000000 0.000000 0.000000 -14.476224 -2.462067 -5.079452 5.284407 -1.536513 2.383717 13.364189 -0.832793 -0.216565 0.452470 2.531042 -0.448451 0.000000 0.000000 0.000000 11.881686 -0.269196 -0.373986 11.373845 0.959527 1.359780 -1.606323 1.485810 3.661594 0.000000 0.000000 0.000000 12.211285 -0.148357 -0.453494 0.786438 7.240591 -10.249512 -2.050931 -2.523325 -0.467893 80.550969 -69.058663 9.581782 0.090864 -25.592985 1.331574 0.000000 0.000000 0.000000 12.259020 -0.368431 -0.457822 1.547118 -1.302573 10.761235 5.785947 0.367245 -2.407272 6.270105 35.013066 58.253126 -0.950913 27.635091 0.422192 0.000000 0.000000 0.000000 
